PathFileType	4	(X/Y/Z)	/Users/niels/Desktop/University/Third Semester/Perception and Action/Exam/Gymnastics Motion Tracking/Code for Gym Tracking/Analyzed Data/Webcam_Backflip/id2007_1_baseline_Sports2D/id2007_1_baseline_Sports2D_px_person00.trc
DataRate	CameraRate	NumFrames	NumMarkers	Units	OrigDataRate	OrigDataStartFrame	OrigNumFrames
29.776119402985074	29.776119402985074	12	22	m	29.776119402985074	67	134
Frame#	Time	Hip			RHip			RKnee			RAnkle			RBigToe			RSmallToe			RHeel			LHip			LKnee			LAnkle			LBigToe			LSmallToe			LHeel			Neck			Head			Nose			RShoulder			RElbow			RWrist			LShoulder			LElbow			LWrist		
		X1	Y1	Z1	X2	Y2	Z2	X3	Y3	Z3	X4	Y4	Z4	X5	Y5	Z5	X6	Y6	Z6	X7	Y7	Z7	X8	Y8	Z8	X9	Y9	Z9	X10	Y10	Z10	X11	Y11	Z11	X12	Y12	Z12	X13	Y13	Z13	X14	Y14	Z14	X15	Y15	Z15	X16	Y16	Z16	X17	Y17	Z17	X18	Y18	Z18	X19	Y19	Z19	X20	Y20	Z20	X21	Y21	Z21	X22	Y22	Z22
67	2.250125313283208	0.8769392612585315	-0.7267500474252537	0.0	0.864414483169279	-0.7352801699472344	0.0	0.8808353664329721	-1.0573642879641487	0.0	1.0394988279692523	-1.0857745317353336	0.0			0.0	1.625089599609375	-0.343052490234375	0.0			0.0	0.8727822555043317	-0.740404481367993	0.0	0.9044414935188535	-1.0518403765984021	0.0	1.1127923652391478	-1.0709662853108801	0.0			0.0			0.0			0.0	1.0869447970222976	-0.3091232993768083	0.0	1.229103412266168	-0.14679119167577676	0.0	1.197980761166374	-0.2504085171672734	0.0	1.0377048831959768	-0.3490776112322592	0.0	1.0087549795598616	-0.6068485018785607	0.0	1.018116213005751	-0.8553691134755578	0.0	1.0521692140340935	-0.3590680375931038	0.0	1.0048361865663171	-0.6028840176206446	0.0	1.0214633110105553	-0.8230500983498629	0.0
68	2.2837092731829576	0.877927704540696	-0.7268266879994861	0.0	0.8658463820890876	-0.7346047097603549	0.0	0.88156060147522	-1.0571558131590386	0.0	1.0395243075974816	-1.0857703570429602	0.0			0.0	1.625089599609375	-0.343052490234375	0.0			0.0	0.8740763855370637	-0.7402268398112136	0.0	0.9038088172057087	-1.0533249837147407	0.0	1.1127937517542972	-1.0709669959675545	0.0			0.0			0.0			0.0	1.082209684951179	-0.3078709133454198	0.0	1.222612461164623	-0.14368458129812806	0.0	1.1938062817797097	-0.24764734005556102	0.0	1.0341585165177365	-0.3474329366081964	0.0	1.0174529451863374	-0.6065993071196162	0.0	1.0453779303600361	-0.8508851796297972	0.0	1.0480232674778882	-0.35794887348322557	0.0	1.0099752107177544	-0.603536405220621	0.0	1.0492286531254962	-0.8178312016783108	0.0
69	2.3172932330827067	0.8810582358892918	-0.7269605402099205	0.0	0.8689133134264	-0.7340977913985595	0.0	0.8841951154830741	-1.0568443654872888	0.0	1.0395540921784854	-1.0857660653653907	0.0			0.0	1.625089599609375	-0.343052490234375	0.0			0.0	0.8787926088728526	-0.7402432458891536	0.0	0.9043256861086099	-1.0548008077864317	0.0	1.1128125286949395	-1.0709629820310165	0.0			0.0			0.0			0.0	1.0753439395880457	-0.3046444005555079	0.0	1.2117874934918667	-0.13761341385576367	0.0	1.1870010990956203	-0.24284456903984114	0.0	1.028789693590127	-0.34417851007490474	0.0	1.0304493376959039	-0.6038145169667433	0.0	1.0831278102057336	-0.8398807618105554	0.0	1.0417861646880981	-0.3552003395584259	0.0	1.0190672175986324	-0.6022045287904	0.0	1.083891557984296	-0.8054554971221441	0.0
70	2.3508771929824563	0.8861061030048653	-0.7271900620362796	0.0	0.8736408769465772	-0.7337475022916021	0.0	0.8887202069097998	-1.0567171007596095	0.0	1.0395733430337335	-1.0857647452907766	0.0			0.0	1.625089599609375	-0.343052490234375	0.0			0.0	0.8861216700961723	-0.7401711224455955	0.0	0.9066205409491419	-1.0562811543524306	0.0	1.1128694889094046	-1.070949273533276	0.0			0.0			0.0			0.0	1.066416254997485	-0.29957511038720763	0.0	1.196615699882766	-0.1291528385772215	0.0	1.1773520026550977	-0.23616340279331371	0.0	1.022014226111658	-0.3397904426853627	0.0	1.047683148571837	-0.5973572823499089	0.0	1.1297774424178428	-0.8197375296914785	0.0	1.0330854095421425	-0.3508073111077366	0.0	1.0316609184039491	-0.5977428348859815	0.0	1.1206732675903035	-0.7826123519032289	0.0
71	2.3844611528822055	0.8927820779472166	-0.7275098548971811	0.0	0.8802254431440732	-0.733530617047374	0.0	0.8953007800913931	-1.0570332111381397	0.0	1.0395547352570274	-1.085771341641358	0.0			0.0	1.625089599609375	-0.343052490234375	0.0			0.0	0.8950637260647601	-0.7398121536814392	0.0	0.9109718491797151	-1.057712751218113	0.0	1.1129872200239141	-1.070920533657711	0.0			0.0			0.0			0.0	1.0556028380826021	-0.2929916237650079	0.0	1.177430205999524	-0.11910935198456897	0.0	1.1647323920520147	-0.22775407849694485	0.0	1.0142090529688244	-0.3346895320197908	0.0	1.0683877119556109	-0.5855196803108336	0.0	1.1825808646558817	-0.7878631532127769	0.0	1.0221548167131769	-0.345006937863743	0.0	1.0469982675786167	-0.5885863638001827	0.0	1.1534882018830424	-0.7454503104871801	0.0
72	2.418045112781955	0.9009126195647645	-0.7278591429211625	0.0	0.8887938826628721	-0.7333918802466488	0.0	0.9040733455075743	-1.0578281034797197	0.0	1.0394574721204262	-1.0857924522425562	0.0			0.0	1.625089599609375	-0.343052490234375	0.0			0.0	0.9051623243868019	-0.7391317442939156	0.0	0.9175280666088846	-1.058908891016161	0.0	1.1131780668756102	-1.070873947039002	0.0			0.0			0.0			0.0	1.0432874780710901	-0.285331970850161	0.0	1.154942513265181	-0.10837281806955104	0.0	1.1493675622814565	-0.21802533142231195	0.0	1.0056064933081856	-0.3291657610778061	0.0	1.0908579687512046	-0.5665106732038391	0.0	1.2374708191659138	-0.7425451060428692	0.0	1.0098966843833679	-0.3382013703927129	0.0	1.064185437706772	-0.5730954091481867	0.0	1.176746168745558	-0.69135544981847	0.0
73	2.4516290726817043	0.9104725795665167	-0.7280203265527447	0.0	0.8991703823188578	-0.7331018189989091	0.0	0.9150314483933345	-1.0588423883057176	0.0	1.0392341643610417	-1.0858345827527809	0.0			0.0	1.625089599609375	-0.343052490234375	0.0			0.0	0.9166458921278852	-0.7381146780588557	0.0	0.9264520058907169	-1.0595778664752677	0.0	1.1134222793650665	-1.0708145367131203	0.0			0.0			0.0			0.0	1.0300237851722789	-0.27713406822086983	0.0	1.1300863934259968	-0.09781191990491571	0.0	1.1319485437255143	-0.2077815323591697	0.0	0.9961660307460097	-0.32338734205259195	0.0	1.1125621423615955	-0.5392457454094942	0.0	1.2894315899778919	-0.6836912364425456	0.0	0.9976265075617233	-0.33089737196333885	0.0	1.0819585963611487	-0.5503096066540748	0.0	1.1884973147853752	-0.6215224997668063	0.0
74	2.485213032581454	0.9214705759745392	-0.727489490287966	0.0	0.910869473240513	-0.7321705498983561	0.0	0.9280521281123427	-1.0595141700845643	0.0	1.038852162801034	-1.085899849826517	0.0			0.0	1.625089599609375	-0.343052490234375	0.0			0.0	0.9300827366987651	-0.7365444659009512	0.0	0.9377850264284152	-1.0592510182239667	0.0	1.1136360955092104	-1.070762937387206	0.0			0.0			0.0			0.0	1.0164102984109278	-0.26909803424895007	0.0	1.1038571558947243	-0.08816116416426271	0.0	1.113416370599119	-0.1979315910065909	0.0	0.9856922025419134	-0.31740863053257246	0.0	1.13082639596159	-0.5041411993957364	0.0	1.3334516710488957	-0.6130978084144835	0.0	0.9868915568148015	-0.32376304312228465	0.0	1.0985697410683481	-0.5206438844120096	0.0	1.19242643479899	-0.5422404172214877	0.0
75	2.518796992481203	0.9337650617167071	-0.7255421032171924	0.0	0.9232837880265039	-0.7299122631354984	0.0	0.9428633960112944	-1.0590950204244018	0.0	1.0383358209150149	-1.0859783641495564	0.0			0.0	1.625089599609375	-0.343052490234375	0.0			0.0	0.9458128437278136	-0.7338686853759419	0.0	0.9513317782875178	-1.0572336895648595	0.0	1.1136360574085549	-1.0707640536823573	0.0			0.0			0.0			0.0	1.0029695405483234	-0.26195930695235553	0.0	1.0773363988335027	-0.07988408747534609	0.0	1.0946298452835432	-0.1890668952105837	0.0	0.9742661345007878	-0.31120554943430145	0.0	1.143869003800661	-0.4633380835919441	0.0	1.365410443236958	-0.5342520277270545	0.0	0.9790206722793232	-0.31746311272631256	0.0	1.1124860037590005	-0.4860443692816268	0.0	1.1961780390921088	-0.4631385317722976	0.0
76	2.5523809523809526	0.9469776993892781	-0.7215519116731935	0.0	0.9358749948319839	-0.7256262605196375	0.0	0.9590086018592723	-1.0569764954173035	0.0	1.0378317186890422	-1.0860375917242455	0.0			0.0	1.625089599609375	-0.343052490234375	0.0			0.0	0.9635525116283895	-0.729358390114379	0.0	0.9667486383164651	-1.0529104954709225	0.0	1.1131174794368301	-1.0708922006236756	0.0			0.0			0.0			0.0	0.990105373346143	-0.2561689319158727	0.0	1.051681021381828	-0.07310968247589211	0.0	1.0762073424743006	-0.18131671971430582	0.0	0.9624073273939576	-0.30475490471105926	0.0	1.1513401650688457	-0.41990496531230814	0.0	1.383014507422982	-0.4515841252518702	0.0	0.9746053361658845	-0.31239040487848824	0.0	1.123709968458686	-0.4497628201223476	0.0	1.2070286079635255	-0.3932712652184609	0.0
77	2.585964912280702	0.9605530740114625	-0.7153685739054226	0.0	0.9482937964574696	-0.7189153711161091	0.0	0.9759812319577895	-1.0530399425284733	0.0	1.0376868011132883	-1.0860113756699497	0.0			0.0	1.625089599609375	-0.343052490234375	0.0			0.0	0.9824163945385896	-0.7226063692767336	0.0	0.9835891909193487	-1.0462360174019445	0.0	1.1116813227789384	-1.071244353510791	0.0			0.0			0.0			0.0	0.9781232622938728	-0.2516901976255124	0.0	1.0278550835585787	-0.06770893730136772	0.0	1.0585874769510117	-0.17451890978414736	0.0	0.9507468729393364	-0.29808654472425283	0.0	1.1538557631789408	-0.37659786777746884	0.0	1.3866050238439644	-0.3695661042488252	0.0	0.9735632907291747	-0.30860397630614433	0.0	1.1335760613673909	-0.4156082241719997	0.0	1.227297664516001	-0.33733469683072115	0.0
78	2.6195488721804514	0.9738499871601649	-0.7074911773381134	0.0	0.9604557964531871	-0.7099952666593135	0.0	0.9934050334333356	-1.0477319609350964	0.0	1.0385066894300221	-1.0857953244518874	0.0			0.0	1.625089599609375	-0.343052490234375	0.0			0.0	1.001113481004158	-0.7139399782522992	0.0	1.0013374747835015	-1.0378456999995467	0.0	1.1089608421007726	-1.0719089958995034	0.0			0.0			0.0			0.0	0.9672405218268325	-0.2480937363468444	0.0	1.0063286407571703	-0.06342937159515298	0.0	1.04210294105636	-0.16845743704762461	0.0	0.9397411732541276	-0.2912756014712599	0.0	1.1521419289096393	-0.3352352449557286	0.0	1.378560310957076	-0.29218451419157004	0.0	0.9755099829993458	-0.30589883697708	0.0	1.1426561257993226	-0.3864852387829412	0.0	1.252343675399194	-0.2944846961637651	0.0
